<svg width="40" height="40" fill="none" xmlns="http://www.w3.org/2000/svg"><path fill-rule="evenodd" clip-rule="evenodd" d="M19.166 5a7.5 7.5 0 017.227 5.487l.087.341 3.116-.778a1.667 1.667 0 012.055 1.4l.015.217v3.016c.94.9 1.71 1.963 2.274 3.137l.23.513H35a1.667 1.667 0 011.655 1.472l.011.195v5a1.666 1.666 0 01-.741 1.387l-.18.103-1.947.975a10.833 10.833 0 01-3.367 3.875l-.431.29v1.703a1.667 1.667 0 01-1.472 1.655l-.195.012h-5a1.667 1.667 0 01-1.655-1.472l-.012-.195H20a1.667 1.667 0 01-1.472 1.655l-.195.012h-5a1.667 1.667 0 01-1.655-1.472l-.012-.195V31.63a10.833 10.833 0 01-4.756-6.835 5 5 0 01-3.567-4.488L3.333 20v-.833a1.667 1.667 0 013.322-.195l.011.195V20c.003.249.053.48.15.692a10.834 10.834 0 014.897-7.352A7.501 7.501 0 0119.166 5zm7.5 13.333a1.667 1.667 0 100 3.334 1.667 1.667 0 000-3.334zm-7.5-10a4.167 4.167 0 00-4.13 3.615 10.837 10.837 0 012.464-.281h5.628l.117-.029a4.167 4.167 0 00-4.079-3.305z" fill="#3EAF3F"/></svg>