<svg width="25" height="20" fill="none" xmlns="http://www.w3.org/2000/svg"><path d="M13.008 12.342c.195 0 .316-.108.361-.322.11-.593.218-1.094.322-1.504a4.35 4.35 0 01.4-1.036 2.1 2.1 0 01.636-.673c.26-.176.595-.316 1.005-.42a12.98 12.98 0 011.543-.293c.222-.02.332-.14.332-.362 0-.214-.11-.338-.332-.37a13.165 13.165 0 01-1.543-.294 3.643 3.643 0 01-1.035-.43 2.056 2.056 0 01-.644-.673 3.875 3.875 0 01-.4-1.026c-.105-.41-.2-.904-.284-1.484-.039-.221-.16-.332-.361-.332-.195 0-.322.107-.381.322a21.11 21.11 0 01-.332 1.514c-.104.41-.238.752-.4 1.025a1.998 1.998 0 01-.625.674c-.26.17-.596.31-1.006.42a13.79 13.79 0 01-1.534.283c-.22.033-.332.157-.332.371 0 .209.111.33.332.362.769.078 1.387.192 1.856.342.469.143.83.354 1.084.634.26.274.459.648.596 1.123.136.476.257 1.081.361 1.817.032.221.16.332.38.332zm-3.965 1.65c.143 0 .238-.078.283-.234.065-.365.12-.651.166-.86.052-.214.127-.377.225-.488.097-.11.25-.192.459-.244.215-.059.524-.117.928-.176.156-.039.234-.133.234-.283 0-.163-.078-.254-.234-.273a9.523 9.523 0 01-.928-.186c-.209-.065-.362-.15-.46-.254a1.13 1.13 0 01-.224-.478 34.72 34.72 0 01-.166-.84c-.045-.176-.14-.264-.283-.264-.137 0-.231.088-.283.264l-.186.84a1.046 1.046 0 01-.215.478c-.09.104-.244.189-.459.254-.208.059-.51.12-.908.186-.156.02-.234.11-.234.273 0 .156.084.25.254.283.397.059.7.117.908.176.208.052.358.133.45.244.09.104.159.26.204.469l.186.85c.052.175.146.263.283.263zm-6.24 2.402c-.834 0-1.462-.204-1.885-.615-.417-.41-.625-1.041-.625-1.894V2.693C.293 1.84.501 1.21.918.8 1.341.389 1.969.184 2.803.184h19.394c.834 0 1.459.205 1.875.615.423.41.635 1.041.635 1.894v11.192c0 .853-.212 1.484-.635 1.894-.416.41-1.041.616-1.875.616H2.803zm4.785 3.311a.76.76 0 01-.557-.234.76.76 0 01-.234-.557c0-.221.078-.41.234-.566a.777.777 0 01.557-.225h9.824c.215 0 .4.075.557.225a.772.772 0 01.234.566.76.76 0 01-.234.557.76.76 0 01-.557.234H7.588z" fill="#292524"/></svg>