<svg width="1312" height="257" viewBox="0 0 1312 257" fill="none" xmlns="http://www.w3.org/2000/svg">
<g clip-path="url(#clip0_1_55)">
<circle opacity="0.11" cx="14.536" cy="242.464" r="14.536" fill="#3EAF3F"/>
<circle opacity="0.11" cx="61.0514" cy="239.557" r="17.4433" fill="#3EAF3F"/>
<circle opacity="0.11" cx="113.963" cy="236.068" r="20.9319" fill="#3EAF3F"/>
<circle opacity="0.11" cx="174.549" cy="231.882" r="25.1183" fill="#3EAF3F"/>
<circle opacity="0.22" cx="244.345" cy="226.858" r="30.1419" fill="#3EAF3F"/>
<circle opacity="0.33" cx="325.193" cy="220.83" r="36.1703" fill="#3EAF3F"/>
<circle opacity="0.44" cx="419.304" cy="213.596" r="43.4044" fill="#3EAF3F"/>
<circle opacity="0.55" cx="529.33" cy="204.915" r="52.0853" fill="#3EAF3F"/>
<circle opacity="0.66" cx="658.454" cy="194.498" r="62.5023" fill="#3EAF3F"/>
<circle opacity="0.77" cx="810.495" cy="181.997" r="75.0028" fill="#3EAF3F"/>
<circle opacity="0.88" cx="992.504" cy="164.529" r="92.4704" fill="#3EAF3F"/>
<circle cx="1205.76" cy="150.755" r="106.245" fill="#3EAF3F"/>
<path d="M6.696 18.104H10.632V20H0.6V18.104H4.536V5.552L0.888 6.632V4.664L6.696 2.96V18.104ZM17.8954 20V7.64H26.1034V9.512H19.9594V20H17.8954ZM33.3161 20.24C29.5721 20.24 26.7401 17.48 26.7401 13.808C26.7401 10.136 29.5721 7.376 33.3161 7.376C37.0841 7.376 39.8921 10.136 39.8921 13.808C39.8921 17.48 37.0841 20.24 33.3161 20.24ZM33.3161 18.344C35.9081 18.344 37.8521 16.376 37.8521 13.784C37.8521 11.216 35.9081 9.272 33.3161 9.272C30.7481 9.272 28.7801 11.216 28.7801 13.784C28.7801 16.376 30.7481 18.344 33.3161 18.344ZM53.3801 7.64V18.056H54.9161V22.808H52.9961V20H42.8441V22.808H40.9241V18.056H42.4361C42.8681 18.056 43.3721 17.432 43.3961 15.728L43.5881 7.64H53.3801ZM44.7161 18.056H51.3161V9.512H45.5561L45.4121 15.608C45.3641 17.192 44.9561 17.912 44.7161 18.056Z" fill="#1C201D" fill-opacity="0.32"/>
<rect y="34" width="1" height="223" fill="url(#paint0_linear_1_55)"/>
<path d="M602.696 18.104H606.632V20H596.6V18.104H600.536V5.552L596.888 6.632V4.664L602.696 2.96V18.104ZM614.362 8.504C617.53 8.504 619.978 10.736 619.978 14.264C619.978 17.552 617.458 20.24 613.906 20.24C610.162 20.24 607.882 17.6 607.882 14.648H610.018C610.066 16.664 611.578 18.296 613.906 18.296C616.018 18.296 617.842 16.688 617.842 14.336C617.842 11.768 616.066 10.352 613.954 10.352C612.49 10.352 610.738 11.048 610.186 12.704H608.074L609.562 2.96H618.778V4.856H611.266L610.474 9.968C611.482 9.032 612.85 8.504 614.362 8.504ZM626.738 20.048V18.176C627.746 18.128 628.946 17.6 628.946 15.32V7.64H638.666V20H636.602V9.512H630.962V15.368C630.962 18.752 628.97 20.072 626.738 20.048ZM647.403 7.376C651.171 7.376 653.787 10.088 653.715 14.456H643.203C643.347 16.88 645.219 18.488 647.619 18.488C649.683 18.488 650.955 17.36 651.507 16.184L653.355 16.4C652.707 18.488 650.523 20.24 647.595 20.24C643.899 20.24 641.115 17.696 641.115 13.808C641.115 10.184 643.755 7.376 647.403 7.376ZM647.403 9.104C645.123 9.104 643.371 10.688 643.203 12.848H651.531C651.459 10.736 649.827 9.104 647.403 9.104ZM660.644 20H658.556V9.512H654.596V7.64H664.58V9.512H660.644V20Z" fill="#1C201D" fill-opacity="0.32"/>
<rect x="596" y="34" width="1" height="223" fill="url(#paint1_linear_1_55)"/>
<path d="M1108.01 11.048C1109.57 11.648 1110.77 12.944 1110.77 15.2C1110.77 17.768 1108.75 20.24 1104.96 20.24C1101.19 20.24 1098.74 17.768 1098.74 14.528H1100.83C1100.83 16.904 1102.66 18.296 1104.86 18.296C1107.24 18.296 1108.63 16.856 1108.63 15.08C1108.63 12.92 1106.74 12.152 1104.65 12.152H1103.28V10.304H1104.7C1106.81 10.256 1107.96 9.008 1107.96 7.448C1107.96 5.792 1106.64 4.664 1104.67 4.664C1102.56 4.664 1101.07 6.176 1101.07 8.312H1098.98C1098.98 5.24 1101.12 2.72 1104.79 2.72C1107.98 2.72 1110.1 4.616 1110.1 7.304C1110.1 9.032 1109.26 10.304 1108.01 11.048ZM1119.2 20.24C1115.89 20.24 1112.94 17.936 1112.94 14.192V8.768C1112.94 5.024 1115.89 2.72 1119.2 2.72C1122.49 2.72 1125.46 5.024 1125.46 8.768V14.192C1125.46 17.936 1122.49 20.24 1119.2 20.24ZM1119.2 18.248C1121.46 18.248 1123.33 16.568 1123.33 14.192V8.768C1123.33 6.392 1121.46 4.712 1119.2 4.712C1116.92 4.712 1115.07 6.392 1115.07 8.768V14.192C1115.07 16.568 1116.92 18.248 1119.2 18.248ZM1132.63 20.048V18.176C1133.64 18.128 1134.84 17.6 1134.84 15.32V7.64H1144.56V20H1142.49V9.512H1136.85V15.368C1136.85 18.752 1134.86 20.072 1132.63 20.048ZM1153.29 7.376C1157.06 7.376 1159.68 10.088 1159.61 14.456H1149.09C1149.24 16.88 1151.11 18.488 1153.51 18.488C1155.57 18.488 1156.85 17.36 1157.4 16.184L1159.25 16.4C1158.6 18.488 1156.41 20.24 1153.49 20.24C1149.79 20.24 1147.01 17.696 1147.01 13.808C1147.01 10.184 1149.65 7.376 1153.29 7.376ZM1153.29 9.104C1151.01 9.104 1149.26 10.688 1149.09 12.848H1157.42C1157.35 10.736 1155.72 9.104 1153.29 9.104ZM1166.53 20H1164.45V9.512H1160.49V7.64H1170.47V9.512H1166.53V20Z" fill="#1C201D" fill-opacity="0.32"/>
<rect x="1098" y="34" width="1" height="223" fill="url(#paint2_linear_1_55)"/>
</g>
<defs>
<linearGradient id="paint0_linear_1_55" x1="0.5" y1="34" x2="0.5" y2="257" gradientUnits="userSpaceOnUse">
<stop stop-color="#1C201D" stop-opacity="0.32"/>
<stop offset="1" stop-color="#1C201D" stop-opacity="0"/>
</linearGradient>
<linearGradient id="paint1_linear_1_55" x1="596.5" y1="34" x2="596.5" y2="146" gradientUnits="userSpaceOnUse">
<stop stop-color="#1C201D" stop-opacity="0.32"/>
<stop offset="1" stop-color="#1C201D" stop-opacity="0"/>
</linearGradient>
<linearGradient id="paint2_linear_1_55" x1="1098.5" y1="34" x2="1098.5" y2="91" gradientUnits="userSpaceOnUse">
<stop stop-color="#1C201D" stop-opacity="0.32"/>
<stop offset="1" stop-color="#1C201D" stop-opacity="0"/>
</linearGradient>
<clipPath id="clip0_1_55">
<rect width="1312" height="257" fill="white"/>
</clipPath>
</defs>
</svg>
