<svg width="468" height="239" viewBox="0 0 468 239" fill="none" xmlns="http://www.w3.org/2000/svg">
<g clip-path="url(#clip0_51_16)">
<circle opacity="0.55" cx="58.6866" cy="190.036" r="48.0787" fill="#3EAF3F"/>
<circle opacity="0.77" cx="189.417" cy="168.882" r="69.2334" fill="#3EAF3F"/>
<circle cx="370.14" cy="140.043" r="98.0721" fill="#3EAF3F"/>
<path d="M16.3347 17.1344H19.968V18.8845H10.7077V17.1344H14.3409V5.5479L10.9735 6.54483V4.72821L16.3347 3.15529V17.1344ZM26.6726 18.8845V7.47529H34.2492V9.20329H28.5778V18.8845H26.6726ZM40.9072 19.1061C37.4512 19.1061 34.837 16.5584 34.837 13.1688C34.837 9.77929 37.4512 7.2316 40.9072 7.2316C44.3853 7.2316 46.9773 9.77929 46.9773 13.1688C46.9773 16.5584 44.3853 19.1061 40.9072 19.1061ZM40.9072 17.3559C43.2998 17.3559 45.0942 15.5393 45.0942 13.1467C45.0942 10.7762 43.2998 8.98175 40.9072 8.98175C38.5367 8.98175 36.7201 10.7762 36.7201 13.1467C36.7201 15.5393 38.5367 17.3559 40.9072 17.3559ZM59.4278 7.47529V17.0901H60.8456V21.4765H59.0733V18.8845H49.7022V21.4765H47.9299V17.0901H49.3256C49.7244 17.0901 50.1896 16.5141 50.2118 14.9411L50.389 7.47529H59.4278ZM51.4302 17.0901H57.5225V9.20329H52.2056L52.0727 14.8304C52.0284 16.2925 51.6518 16.9571 51.4302 17.0901Z" fill="#1C201D" fill-opacity="0.32"/>
<rect x="10.1538" y="34.269" width="0.923077" height="205.846" fill="url(#paint0_linear_51_16)"/>
<path d="M126.181 17.1344H129.814V18.8845H120.554V17.1344H124.187V5.5479L120.82 6.54483V4.72821L126.181 3.15529V17.1344ZM136.949 8.27283C139.874 8.27283 142.133 10.3331 142.133 13.5898C142.133 16.6248 139.807 19.1061 136.529 19.1061C133.073 19.1061 130.968 16.6691 130.968 13.9442H132.94C132.984 15.8051 134.38 17.3116 136.529 17.3116C138.478 17.3116 140.162 15.8273 140.162 13.6562C140.162 11.2858 138.522 9.97867 136.573 9.97867C135.221 9.97867 133.604 10.6211 133.095 12.1498H131.145L132.519 3.15529H141.026V4.90544H134.092L133.361 9.62421C134.291 8.76021 135.554 8.27283 136.949 8.27283ZM148.373 18.9288V17.2008C149.304 17.1565 150.412 16.6691 150.412 14.5645V7.47529H159.384V18.8845H157.479V9.20329H152.272V14.6088C152.272 17.7325 150.434 18.951 148.373 18.9288ZM167.449 7.2316C170.927 7.2316 173.342 9.73498 173.275 13.767H163.572C163.705 16.0045 165.433 17.4888 167.648 17.4888C169.554 17.4888 170.728 16.4476 171.237 15.3621L172.943 15.5614C172.345 17.4888 170.329 19.1061 167.626 19.1061C164.215 19.1061 161.645 16.7578 161.645 13.1688C161.645 9.8236 164.082 7.2316 167.449 7.2316ZM167.449 8.82667C165.344 8.82667 163.727 10.2888 163.572 12.2827H171.259C171.193 10.3331 169.687 8.82667 167.449 8.82667ZM179.671 18.8845H177.744V9.20329H174.089V7.47529H183.305V9.20329H179.671V18.8845Z" fill="#1C201D" fill-opacity="0.32"/>
<rect x="120" y="32.2693" width="0.923077" height="205.846" fill="url(#paint1_linear_51_16)"/>
<path d="M281.546 10.6211C282.986 11.175 284.093 12.3713 284.093 14.4538C284.093 16.8242 282.233 19.1061 278.732 19.1061C275.254 19.1061 272.994 16.8242 272.994 13.8334H274.922C274.922 16.0267 276.605 17.3116 278.644 17.3116C280.837 17.3116 282.122 15.9824 282.122 14.343C282.122 12.3491 280.372 11.6402 278.444 11.6402H277.181V9.93437H278.489C280.438 9.89006 281.501 8.73806 281.501 7.29806C281.501 5.76944 280.283 4.72821 278.466 4.72821C276.517 4.72821 275.143 6.1239 275.143 8.0956H273.216C273.216 5.25991 275.188 2.93375 278.577 2.93375C281.524 2.93375 283.473 4.68391 283.473 7.16514C283.473 8.76021 282.698 9.93437 281.546 10.6211ZM291.877 19.1061C288.82 19.1061 286.095 16.9793 286.095 13.5233V8.51652C286.095 5.06052 288.82 2.93375 291.877 2.93375C294.912 2.93375 297.659 5.06052 297.659 8.51652V13.5233C297.659 16.9793 294.912 19.1061 291.877 19.1061ZM291.877 17.2673C293.959 17.2673 295.687 15.7165 295.687 13.5233V8.51652C295.687 6.32329 293.959 4.77252 291.877 4.77252C289.772 4.77252 288.066 6.32329 288.066 8.51652V13.5233C288.066 15.7165 289.772 17.2673 291.877 17.2673ZM304.272 18.9288V17.2008C305.203 17.1565 306.31 16.6691 306.31 14.5645V7.47529H315.283V18.8845H313.378V9.20329H308.171V14.6088C308.171 17.7325 306.333 18.951 304.272 18.9288ZM323.348 7.2316C326.826 7.2316 329.241 9.73498 329.174 13.767H319.471C319.604 16.0045 321.332 17.4888 323.547 17.4888C325.453 17.4888 326.627 16.4476 327.136 15.3621L328.842 15.5614C328.244 17.4888 326.228 19.1061 323.525 19.1061C320.114 19.1061 317.544 16.7578 317.544 13.1688C317.544 9.8236 319.981 7.2316 323.348 7.2316ZM323.348 8.82667C321.243 8.82667 319.626 10.2888 319.471 12.2827H327.158C327.092 10.3331 325.586 8.82667 323.348 8.82667ZM335.57 18.8845H333.643V9.20329H329.988V7.47529H339.204V9.20329H335.57V18.8845Z" fill="#1C201D" fill-opacity="0.32"/>
<rect x="272.308" y="32.2693" width="0.923077" height="205.846" fill="url(#paint2_linear_51_16)"/>
</g>
<defs>
<linearGradient id="paint0_linear_51_16" x1="10.6153" y1="34.269" x2="10.6153" y2="240.115" gradientUnits="userSpaceOnUse">
<stop stop-color="#1C201D" stop-opacity="0.32"/>
<stop offset="1" stop-color="#1C201D" stop-opacity="0"/>
</linearGradient>
<linearGradient id="paint1_linear_51_16" x1="120.462" y1="32.2693" x2="120.462" y2="135.654" gradientUnits="userSpaceOnUse">
<stop stop-color="#1C201D" stop-opacity="0.32"/>
<stop offset="1" stop-color="#1C201D" stop-opacity="0"/>
</linearGradient>
<linearGradient id="paint2_linear_51_16" x1="272.769" y1="32.2693" x2="272.769" y2="84.8847" gradientUnits="userSpaceOnUse">
<stop stop-color="#1C201D" stop-opacity="0.32"/>
<stop offset="1" stop-color="#1C201D" stop-opacity="0"/>
</linearGradient>
<clipPath id="clip0_51_16">
<rect width="468" height="237.231" fill="white" transform="translate(0 0.884766)"/>
</clipPath>
</defs>
</svg>
