<svg width="132" height="24" fill="none" xmlns="http://www.w3.org/2000/svg"><path d="M6.744 20C2.875 20 .161 17.632 0 14.237h2.445C2.606 16.816 4.622 18 6.771 18c2.365 0 3.87-1.21 3.87-2.974 0-4.368-9.916-3.316-9.916-9.42 0-2.922 2.5-4.817 5.804-4.817 3.547 0 5.885 2.158 6.046 5.343l-2.391.052C9.996 4.105 8.652 2.79 6.556 2.79c-1.854 0-3.358 1-3.358 2.737 0 4.606 9.942 3.185 9.942 9.369 0 3.158-2.66 5.105-6.396 5.105zm14.663 0c-4.192 0-7.363-3.026-7.363-7.053 0-4.026 3.17-7.052 7.363-7.052 4.218 0 7.362 3.026 7.362 7.052 0 4.027-3.144 7.053-7.362 7.053zm0-2.079c2.902 0 5.078-2.158 5.078-5 0-2.816-2.176-4.947-5.078-4.947-2.875 0-5.079 2.131-5.079 4.947 0 2.842 2.204 5 5.079 5zM30.462 0H32.8v19.737h-2.338V0zm16.575 9.263l.349-3.079H49.4v13.553h-2.364v-3.184C46.177 18.632 44.135 20 41.394 20c-4.219 0-6.933-3.105-6.933-7.079 0-4.026 2.795-7.026 7.04-7.026 2.419 0 4.46 1.237 5.536 3.237v.131zm-5.079 8.684c2.956 0 5.052-2.184 5.052-5 0-2.79-2.096-4.973-5.052-4.973-2.983 0-5.132 2.079-5.132 4.973 0 2.921 2.15 5 5.132 5zM53.733 6.184l.269 2.237c.779-1.605 2.23-2.605 4.755-2.29l-.026 2.027c-2.93-.395-4.622.816-4.622 3.21v8.369h-2.338V6.184h1.962zm6.682-5.131h6.61c3.896 0 6.771 2.052 6.771 6.052 0 3.921-2.875 6.132-6.905 6.132h-4.085v6.5h-2.391V1.053zm2.391 10.026h4.219c2.526 0 4.38-1.263 4.38-3.921s-1.854-3.974-4.38-3.974h-4.219v7.895zM81.529 20c-4.192 0-7.363-3.026-7.363-7.053 0-4.026 3.171-7.052 7.363-7.052 4.218 0 7.362 3.026 7.362 7.052 0 4.027-3.144 7.053-7.362 7.053zm0-2.079c2.902 0 5.078-2.158 5.078-5 0-2.816-2.176-4.947-5.078-4.947-2.875 0-5.079 2.131-5.079 4.947 0 2.842 2.204 5 5.079 5zm25.63-11.737h2.418l-4.568 13.553h-2.391c-2.795-8.29-3.17-9.58-3.493-11.369-.35 1.79-.753 3.053-3.574 11.369h-2.392L88.591 6.184h2.473c2.66 8.184 3.063 9.526 3.412 11.395.376-1.869.806-3.263 3.52-11.395h2.338c2.606 7.921 3.036 9.237 3.439 11.21.376-1.736.779-3.13 3.386-11.21zm9.133-.289c4.219 0 7.148 2.973 7.067 7.763H111.59c.161 2.658 2.257 4.42 4.944 4.42 2.311 0 3.735-1.236 4.353-2.525l2.069.236c-.726 2.29-3.171 4.211-6.449 4.211-4.138 0-7.255-2.79-7.255-7.053 0-3.973 2.956-7.052 7.04-7.052zm0 1.894c-2.553 0-4.514 1.737-4.702 4.106h9.324c-.081-2.316-1.908-4.106-4.622-4.106zm10.683-1.605l.269 2.237c.779-1.605 2.23-2.605 4.756-2.29l-.027 2.027c-2.929-.395-4.622.816-4.622 3.21v8.369h-2.337V6.184h1.961z" fill="#1C201D"/></svg>