<svg width="1312" height="257" fill="none" xmlns="http://www.w3.org/2000/svg"><g clip-path="url(#clip0_1_55)"><circle opacity=".11" cx="14.536" cy="242.464" r="14.536" fill="#3EAF3F"/><circle opacity=".11" cx="61.051" cy="239.557" r="17.443" fill="#3EAF3F"/><circle opacity=".11" cx="113.963" cy="236.068" r="20.932" fill="#3EAF3F"/><circle opacity=".11" cx="174.549" cy="231.882" r="25.118" fill="#3EAF3F"/><circle opacity=".22" cx="244.345" cy="226.858" r="30.142" fill="#3EAF3F"/><circle opacity=".33" cx="325.193" cy="220.83" r="36.17" fill="#3EAF3F"/><circle opacity=".44" cx="419.304" cy="213.596" r="43.404" fill="#3EAF3F"/><circle opacity=".55" cx="529.33" cy="204.915" r="52.085" fill="#3EAF3F"/><circle opacity=".66" cx="658.454" cy="194.498" r="62.502" fill="#3EAF3F"/><circle opacity=".77" cx="810.495" cy="181.997" r="75.003" fill="#3EAF3F"/><circle opacity=".88" cx="992.504" cy="164.529" r="92.47" fill="#3EAF3F"/><circle cx="1205.76" cy="150.755" r="106.245" fill="#3EAF3F"/><path d="M6.696 18.104h3.936V20H.6v-1.896h3.936V5.552L.888 6.632V4.664L6.696 2.96v15.144zM17.896 20V7.64h8.207v1.872H19.96V20h-2.064zm15.42.24c-3.744 0-6.576-2.76-6.576-6.432 0-3.672 2.832-6.432 6.576-6.432 3.768 0 6.576 2.76 6.576 6.432 0 3.672-2.808 6.432-6.576 6.432zm0-1.896c2.592 0 4.536-1.968 4.536-4.56 0-2.568-1.944-4.512-4.536-4.512-2.568 0-4.536 1.944-4.536 4.512 0 2.592 1.968 4.56 4.536 4.56zM53.38 7.64v10.416h1.536v4.752h-1.92V20H42.844v2.808h-1.92v-4.752h1.512c.432 0 .936-.624.96-2.328l.192-8.088h9.792zm-8.664 10.416h6.6V9.512h-5.76l-.144 6.096c-.048 1.584-.456 2.304-.696 2.448z" fill="#1C201D" fill-opacity=".32"/><path fill="url(#paint0_linear_1_55)" d="M0 34h1v223H0z"/><path d="M602.696 18.104h3.936V20H596.6v-1.896h3.936V5.552l-3.648 1.08V4.664l5.808-1.704v15.144zm11.666-9.6c3.168 0 5.616 2.232 5.616 5.76 0 3.288-2.52 5.976-6.072 5.976-3.744 0-6.024-2.64-6.024-5.592h2.136c.048 2.016 1.56 3.648 3.888 3.648 2.112 0 3.936-1.608 3.936-3.96 0-2.568-1.776-3.984-3.888-3.984-1.464 0-3.216.696-3.768 2.352h-2.112l1.488-9.744h9.216v1.896h-7.512l-.792 5.112c1.008-.936 2.376-1.464 3.888-1.464zm12.376 11.544v-1.872c1.008-.048 2.208-.576 2.208-2.856V7.64h9.72V20h-2.064V9.512h-5.64v5.856c0 3.384-1.992 4.704-4.224 4.68zm20.665-12.672c3.768 0 6.384 2.712 6.312 7.08h-10.512c.144 2.424 2.016 4.032 4.416 4.032 2.064 0 3.336-1.128 3.888-2.304l1.848.216c-.648 2.088-2.832 3.84-5.76 3.84-3.696 0-6.48-2.544-6.48-6.432 0-3.624 2.64-6.432 6.288-6.432zm0 1.728c-2.28 0-4.032 1.584-4.2 3.744h8.328c-.072-2.112-1.704-3.744-4.128-3.744zM660.644 20h-2.088V9.512h-3.96V7.64h9.984v1.872h-3.936V20z" fill="#1C201D" fill-opacity=".32"/><path fill="url(#paint1_linear_1_55)" d="M596 34h1v223h-1z"/><path d="M1108.01 11.048c1.56.6 2.76 1.896 2.76 4.152 0 2.568-2.02 5.04-5.81 5.04-3.77 0-6.22-2.472-6.22-5.712h2.09c0 2.376 1.83 3.768 4.03 3.768 2.38 0 3.77-1.44 3.77-3.216 0-2.16-1.89-2.928-3.98-2.928h-1.37v-1.848h1.42c2.11-.048 3.26-1.296 3.26-2.856 0-1.656-1.32-2.784-3.29-2.784-2.11 0-3.6 1.512-3.6 3.648h-2.09c0-3.072 2.14-5.592 5.81-5.592 3.19 0 5.31 1.896 5.31 4.584 0 1.728-.84 3-2.09 3.744zm11.19 9.192c-3.31 0-6.26-2.304-6.26-6.048V8.768c0-3.744 2.95-6.048 6.26-6.048 3.29 0 6.26 2.304 6.26 6.048v5.424c0 3.744-2.97 6.048-6.26 6.048zm0-1.992c2.26 0 4.13-1.68 4.13-4.056V8.768c0-2.376-1.87-4.056-4.13-4.056-2.28 0-4.13 1.68-4.13 4.056v5.424c0 2.376 1.85 4.056 4.13 4.056zm13.43 1.8v-1.872c1.01-.048 2.21-.576 2.21-2.856V7.64h9.72V20h-2.07V9.512h-5.64v5.856c0 3.384-1.99 4.704-4.22 4.68zm20.66-12.672c3.77 0 6.39 2.712 6.32 7.08h-10.52c.15 2.424 2.02 4.032 4.42 4.032 2.06 0 3.34-1.128 3.89-2.304l1.85.216c-.65 2.088-2.84 3.84-5.76 3.84-3.7 0-6.48-2.544-6.48-6.432 0-3.624 2.64-6.432 6.28-6.432zm0 1.728c-2.28 0-4.03 1.584-4.2 3.744h8.33c-.07-2.112-1.7-3.744-4.13-3.744zM1166.53 20h-2.08V9.512h-3.96V7.64h9.98v1.872h-3.94V20z" fill="#1C201D" fill-opacity=".32"/><path fill="url(#paint2_linear_1_55)" d="M1098 34h1v223h-1z"/></g><defs><linearGradient id="paint0_linear_1_55" x1=".5" y1="34" x2=".5" y2="257" gradientUnits="userSpaceOnUse"><stop stop-color="#1C201D" stop-opacity=".32"/><stop offset="1" stop-color="#1C201D" stop-opacity="0"/></linearGradient><linearGradient id="paint1_linear_1_55" x1="596.5" y1="34" x2="596.5" y2="146" gradientUnits="userSpaceOnUse"><stop stop-color="#1C201D" stop-opacity=".32"/><stop offset="1" stop-color="#1C201D" stop-opacity="0"/></linearGradient><linearGradient id="paint2_linear_1_55" x1="1098.5" y1="34" x2="1098.5" y2="91" gradientUnits="userSpaceOnUse"><stop stop-color="#1C201D" stop-opacity=".32"/><stop offset="1" stop-color="#1C201D" stop-opacity="0"/></linearGradient><clipPath id="clip0_1_55"><path fill="#fff" d="M0 0h1312v257H0z"/></clipPath></defs></svg>