<svg width="468" height="239" fill="none" xmlns="http://www.w3.org/2000/svg"><g clip-path="url(#clip0_51_16)"><circle opacity=".55" cx="58.687" cy="190.036" r="48.079" fill="#3EAF3F"/><circle opacity=".77" cx="189.417" cy="168.882" r="69.233" fill="#3EAF3F"/><circle cx="370.14" cy="140.043" r="98.072" fill="#3EAF3F"/><path d="M16.335 17.134h3.633v1.75h-9.26v-1.75h3.633V5.548l-3.367.997V4.728l5.36-1.573v13.98zm10.338 1.75V7.475h7.576v1.728h-5.671v9.681h-1.905zm14.234.222c-3.456 0-6.07-2.548-6.07-5.937 0-3.39 2.614-5.937 6.07-5.937 3.478 0 6.07 2.547 6.07 5.937s-2.592 5.937-6.07 5.937zm0-1.75c2.393 0 4.187-1.817 4.187-4.21 0-2.37-1.794-4.164-4.187-4.164-2.37 0-4.187 1.794-4.187 4.165 0 2.392 1.817 4.209 4.187 4.209zm18.52-9.88v9.614h1.419v4.387h-1.773v-2.593h-9.37v2.593H47.93V17.09h1.396c.398 0 .864-.576.886-2.149l.177-7.466h9.039zM51.43 17.09h6.093V9.203h-5.317l-.133 5.627c-.045 1.463-.421 2.127-.643 2.26z" fill="#1C201D" fill-opacity=".32"/><path fill="url(#paint0_linear_51_16)" d="M10.154 34.269h.923v205.846h-.923z"/><path d="M126.181 17.134h3.633v1.75h-9.26v-1.75h3.633V5.548l-3.367.997V4.728l5.361-1.573v13.98zm10.768-8.861c2.925 0 5.184 2.06 5.184 5.317 0 3.035-2.326 5.516-5.604 5.516-3.456 0-5.561-2.437-5.561-5.162h1.972c.044 1.861 1.44 3.368 3.589 3.368 1.949 0 3.633-1.485 3.633-3.656 0-2.37-1.64-3.677-3.589-3.677-1.352 0-2.969.642-3.478 2.17h-1.95l1.374-8.994h8.507v1.75h-6.934l-.731 4.72c.93-.865 2.193-1.352 3.588-1.352zm11.424 10.656V17.2c.931-.044 2.039-.532 2.039-2.636v-7.09h8.972v11.41h-1.905V9.202h-5.207v5.406c0 3.124-1.838 4.342-3.899 4.32zm19.076-11.697c3.478 0 5.893 2.503 5.826 6.535h-9.703c.133 2.238 1.861 3.722 4.076 3.722 1.906 0 3.08-1.041 3.589-2.127l1.706.2c-.598 1.927-2.614 3.544-5.317 3.544-3.411 0-5.981-2.348-5.981-5.937 0-3.345 2.437-5.937 5.804-5.937zm0 1.595c-2.105 0-3.722 1.462-3.877 3.456h7.687c-.066-1.95-1.572-3.456-3.81-3.456zm12.222 10.057h-1.927v-9.68h-3.655v-1.73h9.216v1.728h-3.634v9.681z" fill="#1C201D" fill-opacity=".32"/><path fill="url(#paint1_linear_51_16)" d="M120 32.269h.923v205.846H120z"/><path d="M281.546 10.621c1.44.554 2.547 1.75 2.547 3.833 0 2.37-1.86 4.652-5.361 4.652-3.478 0-5.738-2.282-5.738-5.273h1.928c0 2.194 1.683 3.479 3.722 3.479 2.193 0 3.478-1.33 3.478-2.969 0-1.994-1.75-2.703-3.678-2.703h-1.263V9.934h1.308c1.949-.044 3.012-1.196 3.012-2.636 0-1.529-1.218-2.57-3.035-2.57-1.949 0-3.323 1.396-3.323 3.368h-1.927c0-2.836 1.972-5.162 5.361-5.162 2.947 0 4.896 1.75 4.896 4.231 0 1.595-.775 2.77-1.927 3.456zm10.331 8.485c-3.057 0-5.782-2.127-5.782-5.583V8.517c0-3.456 2.725-5.583 5.782-5.583 3.035 0 5.782 2.127 5.782 5.583v5.006c0 3.456-2.747 5.583-5.782 5.583zm0-1.839c2.082 0 3.81-1.55 3.81-3.744V8.517c0-2.194-1.728-3.744-3.81-3.744-2.105 0-3.811 1.55-3.811 3.744v5.006c0 2.194 1.706 3.744 3.811 3.744zm12.395 1.662V17.2c.931-.044 2.038-.532 2.038-2.636v-7.09h8.973v11.41h-1.905V9.202h-5.207v5.406c0 3.124-1.838 4.342-3.899 4.32zm19.076-11.697c3.478 0 5.893 2.503 5.826 6.535h-9.703c.133 2.238 1.861 3.722 4.076 3.722 1.906 0 3.08-1.041 3.589-2.127l1.706.2c-.598 1.927-2.614 3.544-5.317 3.544-3.411 0-5.981-2.348-5.981-5.937 0-3.345 2.437-5.937 5.804-5.937zm0 1.595c-2.105 0-3.722 1.462-3.877 3.456h7.687c-.066-1.95-1.572-3.456-3.81-3.456zm12.222 10.057h-1.927v-9.68h-3.655v-1.73h9.216v1.728h-3.634v9.681z" fill="#1C201D" fill-opacity=".32"/><path fill="url(#paint2_linear_51_16)" d="M272.308 32.269h.923v205.846h-.923z"/></g><defs><linearGradient id="paint0_linear_51_16" x1="10.615" y1="34.269" x2="10.615" y2="240.115" gradientUnits="userSpaceOnUse"><stop stop-color="#1C201D" stop-opacity=".32"/><stop offset="1" stop-color="#1C201D" stop-opacity="0"/></linearGradient><linearGradient id="paint1_linear_51_16" x1="120.462" y1="32.269" x2="120.462" y2="135.654" gradientUnits="userSpaceOnUse"><stop stop-color="#1C201D" stop-opacity=".32"/><stop offset="1" stop-color="#1C201D" stop-opacity="0"/></linearGradient><linearGradient id="paint2_linear_51_16" x1="272.769" y1="32.269" x2="272.769" y2="84.885" gradientUnits="userSpaceOnUse"><stop stop-color="#1C201D" stop-opacity=".32"/><stop offset="1" stop-color="#1C201D" stop-opacity="0"/></linearGradient><clipPath id="clip0_51_16"><path fill="#fff" transform="translate(0 .885)" d="M0 0h468v237.231H0z"/></clipPath></defs></svg>